<?xml version="1.0" encoding="UTF-8"?>
<svg version="1.1" xmlns="http://www.w3.org/2000/svg" width="1736" height="780">
<path d="M0 0 C9.54936625 6.1075452 14.63580322 16.35346126 20 26 C20.37543945 26.67095703 20.75087891 27.34191406 21.13769531 28.03320312 C46.42872281 73.94470825 53.74879246 129.51598873 59.3125 180.80078125 C59.47207436 182.26025932 59.47207436 182.26025932 59.63487244 183.7492218 C60.14046797 188.39550431 60.62994379 193.04240526 61.08813477 197.69360352 C63.51128089 221.28865343 68.25649178 248.96008672 87.4375 265.125 C93.65131628 269.45093807 99.73394104 271.6743568 107.3125 270.4375 C112.19209965 269.16223687 115.45926306 267.54693249 118.1484375 263.1015625 C121.63728018 256.44554349 122.23143545 250.81132096 122.3125 243.375 C122.34150391 242.54226563 122.37050781 241.70953125 122.40039062 240.8515625 C122.54967675 225.325806 117.05835267 210.1690997 112 195.6875 C111.71820892 194.87083862 111.43641785 194.05417725 111.14608765 193.21276855 C106.53134471 179.85369723 101.38989312 166.80559825 95.86328125 153.796875 C92.94111299 146.91535219 90.1900128 139.97518958 87.5 133 C87.10272705 131.9800293 86.7054541 130.96005859 86.29614258 129.90917969 C80.39743127 114.53134416 73.59733737 95.92335069 79.5 79.4375 C84.4015683 69.48011824 92.67881863 62.87688699 102.8828125 58.8671875 C110.38456332 56.78023426 118.47924286 56.81047486 125.5625 60.1875 C129.27244847 62.34303471 132.20550305 64.71235653 135 68 C135.66160126 68.76033539 136.32320251 69.52067078 137.00485229 70.30404663 C143.42167473 78.97481021 144.19259191 91.78443333 145.83227158 102.22794724 C146.25358378 104.90844355 146.68712045 107.58672936 147.12356567 110.26480103 C148.20603271 116.92084438 149.27038654 123.57974848 150.33129883 130.23925781 C155.06743002 160.83090104 155.06743002 160.83090104 162.38409424 190.88153076 C163.26658867 193.91695828 164.04933195 196.97562671 164.828125 200.0390625 C165.07046875 200.98910156 165.3128125 201.93914062 165.5625 202.91796875 C165.789375 203.81128906 166.01625 204.70460938 166.25 205.625 C166.49234375 206.55699219 166.7346875 207.48898437 166.984375 208.44921875 C174.01719227 236.23649135 173.55989691 262.94665382 159 288 C157.45896761 290.46616188 155.86078447 292.89148461 154.25 295.3125 C143.95024279 310.85450544 144.68933173 325.43029559 146.875 343.1875 C149.11988508 361.90063181 150.21300302 380.33619323 150.1875 399.1875 C150.18656342 400.08730591 150.18562683 400.98711182 150.18466187 401.91418457 C150.06601024 454.60018029 134.56104518 498.94952858 97.375 537 C77.55927117 556.72017213 52.80328164 571.12299017 25.9375 578.8125 C25.30320068 578.99538574 24.66890137 579.17827148 24.01538086 579.36669922 C9.46452283 583.23001189 -5.0039248 584.55480062 -20 584.4375 C-20.84583649 584.43412628 -21.69167297 584.43075256 -22.56314087 584.42727661 C-55.92297304 584.23581671 -87.57887195 575.71720947 -119 565 C-120.0921582 564.63036133 -121.18431641 564.26072266 -122.30957031 563.87988281 C-159.10454095 551.34603213 -194.24522131 534.86468367 -229.41040039 518.41259766 C-305.99096892 482.58977858 -382.64856753 452.14888493 -622.6875 413.25 C-623.56521057 413.19074341 -624.44292114 413.13148682 -625.347229 413.07043457 C-650.69022323 411.39243958 -676.04258775 410.79064882 -701.4375 410.8125 C-702.75527435 410.81310425 -704.07304871 410.8137085 -705.43075562 410.81433105 C-794.17092567 410.89913598 -884.08228055 419.68664583 -1160.48828125 518.3046875 C-1162.73341951 519.43729403 -1164.9786186 520.56977999 -1167.22387695 521.70214844 C-1171.6726125 523.94606482 -1176.11389269 526.20392409 -1180.55151367 528.46972656 C-1198.64402018 537.64577118 -1217.08505625 546.22170674 -1237.75 540.4375 C-1249.77555884 536.22707706 -1258.84592612 529.29325434 -1264.8125 518 C-1270.19596003 506.34764243 -1270.40941433 495.25547464 -1266.265625 483.04296875 C-1264.39602051 478.54783944 -1261.98456779 474.82539781 -1259 471 C-1258.39285156 470.13181641 -1258.39285156 470.13181641 -1257.7734375 469.24609375 C-1220.75516816 420.3047622 -1048.40881074 393.89280754 -912.85693359 370.56317139 C-873.4598451 365.15619772 -833.85281347 361.06237191 -794.12539673 359.10687256 C-792.6452076 359.03244335 -791.16521428 358.95405899 -789.68539429 358.87261963 C-768.74156755 357.73184644 -747.78087347 357.75447701 -726.8125 357.75 C-725.8625629 357.74955814 -724.91262581 357.74911629 -723.93390274 357.74866104 C-692.19494373 357.74093878 -660.64327302 358.30674832 -629 361 C-627.99108704 361.08485657 -626.98217407 361.16971313 -625.94268799 361.25714111 C-534.28799715 369.0431168 -443.55845539 386.77309875 -218.51400757 469.56021118 C-204.07965905 475.71588254 -189.60291425 481.76409595 -175.09838867 487.75244141 C-173.39760605 488.45470986 -171.69684098 489.15702083 -169.99609375 489.859375 C-168.74320808 490.37671707 -168.74320808 490.37671707 -167.4650116 490.9045105 C-161.79061763 493.25083144 -156.12865036 495.62532747 -150.47265625 498.015625 C-97.03107958 520.57933122 -40.5711801 543.57947905 16.8125 521.1875 C48.43331093 507.85915819 72.12378433 483.08708412 85.05224609 451.42285156 C92.77959729 431.12379691 96.23009275 410.40059322 96.25 388.75 C96.25100708 387.99288727 96.25201416 387.23577454 96.25305176 386.45571899 C96.40660529 357.33416826 96.40660529 357.33416826 84.6640625 331.63671875 C78.96911657 326.03535174 72.37191379 324.04944174 64.859375 321.79516602 C54.70721679 318.74262687 48.59876581 314.44473677 41 307 C40.443125 306.47921875 39.88625 305.9584375 39.3125 305.421875 C33.57520631 299.49749564 30.43446769 291.39349805 27 284 C26.46117187 282.85015625 25.92234375 281.7003125 25.3671875 280.515625 C17.83174181 263.70881944 13.54783187 245.84283815 9.32275391 227.97851562 C8.50729642 224.5308485 7.68231603 221.08557634 6.85546875 217.640625 C3.79959999 204.85937731 0.8574043 192.05750629 -1.91723633 179.21203613 C-8.45087903 149.28048157 -20.96829266 121.8718533 -34.046875 94.34765625 C-59.61348085 40.53152912 -59.61348085 40.53152912 -54 18 C-50.06636014 8.52057279 -43.01824789 2.07891945 -33.859375 -2.2734375 C-23.89165214 -6.16838803 -9.1046271 -5.72763814 0 0 Z " fill="#FFFFFF" transform="translate(1555,188)"/>
<path d="M0 0 C6.37270065 6.1463694 10.3593885 13.51085589 14.5 21.25 C15.19682277 22.53382747 15.89451236 23.8171848 16.59301758 25.10009766 C18.74363676 29.05875463 20.87422237 33.02795962 23 37 C23.49811188 37.93011902 23.49811188 37.93011902 24.00628662 38.87902832 C26.86194338 44.21249413 29.71334195 49.54823139 32.56005859 54.88647461 C38.01718839 65.09572892 43.68435932 75.17558525 49.42480469 85.22753906 C50.99757268 87.99572774 52.55223618 90.77331971 54.1015625 93.5546875 C62.0945983 107.87637384 70.52269253 121.90068834 79.09472656 135.87988281 C80.72160564 138.54409534 82.33197444 141.21668351 83.9296875 143.8984375 C95.52342284 163.2999778 108.57497892 181.82862883 122 200 C122.76304443 201.03326416 122.76304443 201.03326416 123.54150391 202.08740234 C136.59205106 219.71287981 150.2520963 236.80684467 164.61035156 253.38574219 C165.87429173 254.85397345 167.12169063 256.33640369 168.3671875 257.8203125 C169.05039062 258.62210937 169.73359375 259.42390625 170.4375 260.25 C171.01371094 260.93578125 171.58992187 261.6215625 172.18359375 262.328125 C174.30249693 264.27842728 176.28830909 265.08835091 179 266 C180.59286709 264.76136256 180.59286709 264.76136256 182 263 C182.59659369 256.79852978 180.043902 250.64157446 177.7890625 244.98828125 C177.4652359 244.15062729 177.1414093 243.31297333 176.80776978 242.44993591 C176.11510527 240.66132383 175.41770708 238.87453878 174.71594238 237.08947754 C173.60691981 234.26647714 172.51195145 231.43838873 171.42089844 228.60839844 C169.95807406 224.81462154 168.49196108 221.02215306 167.02246094 217.23095703 C116.84663373 87.61446377 116.84663373 87.61446377 140.75097656 32.17944336 C146.82432078 18.92999471 155.28484638 8.28727171 168.8125 2.125 C178.5651653 -1.31711716 189.56368134 -1.43046669 199 3 C205.09817597 6.2284461 209.80472724 11.41418171 212 18 C213.81324939 36.20726711 209.51933025 53.05161782 205.43890381 70.63302612 C201.69745142 86.86287575 199.828305 103.16290029 199.75 119.8125 C199.729375 120.86630859 199.70875 121.92011719 199.6875 123.00585938 C199.59339586 143.03827863 204.14354077 162.85682958 208.1875 182.375 C208.43187805 183.5629718 208.6762561 184.7509436 208.92803955 185.97491455 C214.02223944 210.69821757 220.09101535 235.02882534 226.7331543 259.37548828 C227.30129536 261.45865181 227.86941049 263.54182241 228.4375 265.625 C228.85789047 267.16556061 228.85789047 267.16556061 229.28677368 268.73724365 C236.76612877 296.18503761 244.1638822 323.76814306 248 352 C248.17136475 353.14057861 248.17136475 353.14057861 248.34619141 354.30419922 C254.24566356 394.0972314 254.57480165 449.08791365 229.9375 482.82421875 C224.11904333 489.77519645 216.99495265 495.06793 208 497 C192.59503024 497.93970316 180.17316628 496.34307878 168 486 C154.07585955 473.29422183 150.27073229 454.10037176 149 436 C148.85556768 431.25136193 148.83960813 426.50449915 148.82421875 421.75390625 C148.81374611 420.37555715 148.80231583 418.99721503 148.78999329 417.61888123 C148.73837283 411.83213739 148.68988725 406.04551287 148.67407227 400.25854492 C148.5371883 356.77031049 139.8802138 316.32684214 121 277 C120.58379395 276.12520996 120.16758789 275.25041992 119.73876953 274.34912109 C103.93586339 241.30992515 83.52854022 209.87088585 61 181 C60.38092773 180.20561523 59.76185547 179.41123047 59.12402344 178.59277344 C57.22384148 176.17340565 55.30485181 173.77074736 53.375 171.375 C52.79427734 170.64474609 52.21355469 169.91449219 51.61523438 169.16210938 C51.06931641 168.49759766 50.52339844 167.83308594 49.9609375 167.1484375 C49.48446777 166.56239746 49.00799805 165.97635742 48.51708984 165.37255859 C46.72861471 163.75446924 45.35261401 163.39305173 43 163 C42.61183345 168.61964407 43.72425281 172.3467679 46.37109375 177.1953125 C47.11203387 178.61349318 47.8527461 180.03179293 48.59326172 181.45019531 C48.9869696 182.19209106 49.38067749 182.93398682 49.78631592 183.69836426 C51.85687733 187.62498587 53.84787589 191.59168713 55.84765625 195.5546875 C56.26623901 196.38118301 56.68482178 197.20767853 57.11608887 198.05921936 C96.17919865 275.22214167 133.0916501 366.41855481 104.875 453.5 C98.17765932 473.13083341 88.38156361 497.96845408 69.5 508.875 C58.217809 513.96236834 45.57886215 514.09602249 34 510 C26.31822889 506.30772014 19.37355435 500.03983094 16.0625 492.0625 C13.36240999 482.19029592 14.42769035 471.33680871 16.5390625 461.45703125 C16.71076462 460.65023422 16.88246674 459.84343719 17.05937195 459.01219177 C19.28856212 449.07322653 22.53380696 439.45393281 25.74108887 429.79653931 C31.95282449 411.04650345 37.96576485 392.35722278 42 373 C42.20512207 372.01757324 42.41024414 371.03514648 42.62158203 370.02294922 C46.45505619 351.11716398 48.98826978 331.31422888 48 312 C47.96422852 311.29053223 47.92845703 310.58106445 47.89160156 309.85009766 C45.68705976 271.44762305 28.35865839 236.45011553 8.83398438 204.04443359 C6.95657971 200.92792186 5.09418742 197.80281879 3.234375 194.67578125 C-2.55403543 184.96236809 -8.40832645 175.29245725 -14.375 165.6875 C-35.23432454 132.10440902 -55.95952647 98.39754441 -70.8125 61.625 C-71.11969971 60.86614502 -71.42689941 60.10729004 -71.7434082 59.32543945 C-77.41322021 44.71267506 -78.14549724 29.58049346 -72 15 C-70.58461668 12.08138199 -69.00142512 9.54983822 -67 7 C-66.54367187 6.40832031 -66.08734375 5.81664062 -65.6171875 5.20703125 C-50.30392402 -12.22238673 -17.78321047 -14.64668953 0 0 Z " fill="#FFFFFF" transform="translate(812,16)"/>
<path d="M0 0 C15.62750571 11.80842426 23.42967725 29.37643815 28 48 C28.3568689 49.45297485 28.3568689 49.45297485 28.72094727 50.93530273 C31.78169255 65.16429351 32.38293658 79.75590644 33.40722656 94.24200439 C33.81717958 100.0385531 34.23528643 105.8344404 34.66615105 111.62947273 C34.8125014 113.63021107 34.95038123 115.63156334 35.08802795 117.63291931 C35.57617199 124.27891576 36.3412633 130.54216586 38 137 C39.32 137.33 40.64 137.66 42 138 C42.20302734 137.06607422 42.20302734 137.06607422 42.41015625 136.11328125 C48.04500078 111.9205655 56.32864951 88.00193698 74 70 C75.01320313 68.95005859 75.01320313 68.95005859 76.046875 67.87890625 C91.04644447 53.41503569 112.6724479 47.55679703 133.0390625 47.796875 C150.68158164 48.70161957 166.83381912 56.53147917 179.1015625 69.1640625 C187.80271089 79.2090176 193.75042565 91.93015896 196 105 C196.27457031 106.50433594 196.27457031 106.50433594 196.5546875 108.0390625 C200.92492406 146.91116662 189.20345283 183.35094831 177.71399307 219.88877487 C176.29395594 224.41418646 174.88647823 228.94349293 173.47924805 233.47290039 C173.20040866 234.37035823 172.92156927 235.26781607 172.6342802 236.1924696 C172.07567236 237.99064505 171.5171338 239.78884202 170.95866585 241.58706093 C170.13509409 244.23789566 169.31051054 246.88841384 168.48570251 249.53886414 C152.66267429 299.54517354 152.66267429 299.54517354 143 351 C142.79697266 352.59062256 142.79697266 352.59062256 142.58984375 354.21337891 C139.35554673 380.04040616 138.8196838 405.82914268 141.20874023 431.75610352 C141.9711521 440.07961346 142.42627814 448.39941249 142.75 456.75 C142.83495728 458.58848511 142.83495728 458.58848511 142.92163086 460.46411133 C143.39835016 474.10125707 142.37772167 487.32233944 132.8125 497.8125 C123.52409782 506.32019597 110.32275349 509.74380723 97.9453125 509.33984375 C88.58113823 508.2593621 80.98772222 504.30954014 75 497 C66.75896969 483.67646656 64.43145141 470.77519475 64.5625 455.3125 C64.56587372 454.5419931 64.56924744 453.77148621 64.57272339 452.97763062 C64.76804716 422.06654479 73.69833873 394.03748304 84.8125 365.4375 C85.6449312 363.27250798 86.47637108 361.10713457 87.30688477 358.94140625 C89.44063147 353.38325928 91.58480126 347.82920749 93.73278809 342.27655029 C126.54628099 261.89523228 126.54628099 261.89523228 142 177 C142.06445312 176.08863281 142.12890625 175.17726562 142.1953125 174.23828125 C142.6914998 161.85013835 139.6117144 146.74607717 131.40625 137.1328125 C127.5247756 133.44541182 123.42449258 131.1512405 118 131 C106.91232263 132.73123383 98.41682484 141.34344572 92 150 C70.18895011 184.83829094 79.80080887 228.79545788 85.62426758 266.99023438 C87.22361751 279.80166127 85.84260722 290.16819037 78.01171875 300.609375 C71.44032876 308.4184831 64.39877799 314.05922823 54.05078125 315.375 C42.10824579 315.86432284 33.58658627 311.03124664 25.0078125 303.17578125 C6.32912976 284.09736016 3.34601172 253.72748416 1.375 228.4375 C1.25329084 226.96413582 1.13089539 225.49082818 1.0078125 224.01757812 C0.64958367 219.67997215 0.32111897 215.3404892 0 211 C-0.09063721 209.81220947 -0.18127441 208.62441895 -0.2746582 207.40063477 C-1.3510706 191.98245718 -1.61609917 176.51599316 -2.04956055 161.0690918 C-2.43662861 147.4175958 -2.88942137 133.78987942 -3.953125 120.171875 C-4.02913437 119.18143692 -4.10514374 118.19099884 -4.18345642 117.17054749 C-5.65999648 99.68123212 -9.55243477 81.14393252 -22 68 C-27.01805518 64.2769268 -32.40647042 62.07899522 -38.71484375 62.53515625 C-47.41051897 64.3040201 -52.47855121 68.75696836 -57.3125 76.046875 C-71.84393485 101.47688599 -65.302273 137.4188336 -58.15942383 164.19824219 C-51.16414834 189.18311906 -41.79353186 213.42529332 -32.57641602 237.65234375 C5.79694628 338.53069862 5.79694628 338.53069862 10 378 C10.0928125 378.86753906 10.185625 379.73507812 10.28125 380.62890625 C11.11769558 389.41158484 11.24303519 398.18539 11.25 407 C11.25067474 407.7721283 11.25134949 408.54425659 11.25204468 409.33978271 C11.21692543 434.71031844 8.16655676 463.55791904 -10 483 C-20.41835169 492.90851746 -33.85310683 494.50319896 -47.58984375 494.27734375 C-54.46125307 493.98663584 -58.81542648 492.03893529 -63.8125 487.375 C-68.12267023 481.48393688 -70.48410534 474.22252521 -71 467 C-71.0515625 466.34515625 -71.103125 465.6903125 -71.15625 465.015625 C-71.64724616 453.14988458 -68.65865887 441.14677055 -66.3125 429.58203125 C-66.16027481 428.83021072 -66.00804962 428.0783902 -65.85121155 427.30378723 C-65.0841477 423.52547088 -64.30704336 419.74963557 -63.51342773 415.97680664 C-59.77577977 398.02354734 -58.65076756 380.76416599 -58.68432617 362.42749023 C-58.68747927 358.83611459 -58.66396773 355.24557101 -58.63867188 351.65429688 C-58.59791434 337.18076688 -59.54248955 323.26233424 -62 309 C-62.12468658 308.25338104 -62.24937317 307.50676208 -62.37783813 306.73751831 C-63.18961764 301.91173953 -64.09581141 297.10948943 -65.0625 292.3125 C-65.20894958 291.58054413 -65.35539917 290.84858826 -65.50628662 290.0944519 C-68.84094321 273.59277007 -73.42652675 257.52675778 -78.27416992 241.41601562 C-80.66109598 233.47083559 -83.01635368 225.51611136 -85.375 217.5625 C-85.64718353 216.64518097 -85.91936707 215.72786194 -86.19979858 214.78274536 C-111.16261911 130.54786158 -111.16261911 130.54786158 -111.24023438 96.57177734 C-111.24987398 94.03318667 -111.28094872 91.49543071 -111.3125 88.95703125 C-111.41034283 74.06692586 -109.81294597 59.56478634 -104.875 45.4375 C-104.5764209 44.56891357 -104.2778418 43.70032715 -103.97021484 42.80541992 C-99.21494135 29.49187031 -93.12548398 17.99300101 -83 8 C-82.48566406 7.38125 -81.97132812 6.7625 -81.44140625 6.125 C-61.9458982 -16.5606821 -23.0441905 -15.34257947 0 0 Z " fill="#FFFFFF" transform="translate(1156,42)"/>
<path d="M0 0 C12.28832805 10.83876656 18.6746201 23.48687775 20.13452148 40.00170898 C21.06964677 60.07428202 15.39661335 77.37523927 9.5690918 96.31713867 C4.57652606 112.60834694 0.99098761 128.40297197 0.484375 145.48046875 C0.41067738 147.61915865 0.33644126 149.75783004 0.26171875 151.89648438 C0.14885842 155.22439844 0.0396025 158.55227826 -0.06005859 161.88061523 C-1.22390576 200.03493186 -1.22390576 200.03493186 -12.04296875 210.37890625 C-20.00714962 216.72893192 -28.13941011 217.4668713 -38.0859375 216.5078125 C-47.49656178 214.65488528 -56.29067348 211.12967577 -64.0859375 205.5078125 C-64.71757812 205.06953125 -65.34921875 204.63125 -66 204.1796875 C-75.74409855 196.7106428 -80.98293289 184.32094601 -83.0859375 172.5078125 C-85.54506346 140.31191786 -72.23669572 113.76885028 -56.75 86.3515625 C-48.69937994 71.99165556 -42.63596306 56.2026571 -44.0859375 39.5078125 C-45.27602893 35.33602461 -47.04822161 32.51408246 -50.1484375 29.5078125 C-59.72516207 26.24765094 -68.44859868 29.36051193 -77.18066406 33.53662109 C-103.77082506 47.09065241 -122.30586183 70.4831713 -131.49609375 98.75 C-139.59053083 124.68174885 -138.82616009 150.0264896 -126.15234375 174.31640625 C-118.32069011 188.49199321 -106.77643609 201.52222692 -94.1484375 211.6328125 C-93.20097656 212.39464844 -92.25351563 213.15648437 -91.27734375 213.94140625 C-90.50994873 214.55604736 -90.50994873 214.55604736 -89.72705078 215.18310547 C-87.96926812 216.60198805 -86.22794087 218.03943149 -84.48828125 219.48046875 C-76.43070475 226.13209397 -68.18857888 232.45297209 -59.75219727 238.61669922 C-51.27353678 244.81455555 -43.20251914 251.27707766 -35.44921875 258.3671875 C-33.38564537 260.23634157 -31.28079137 262.03104612 -29.1484375 263.8203125 C-6.57896981 283.68684993 9.96981316 310.97357099 18.9140625 339.5078125 C19.11966797 340.15766113 19.32527344 340.80750977 19.53710938 341.47705078 C20.86629369 345.781236 21.93997156 350.11087421 22.9140625 354.5078125 C23.13835937 355.48596924 23.13835937 355.48596924 23.3671875 356.48388672 C32.64394635 398.47921423 23.09659505 444.18141964 2.9140625 481.5078125 C2.34945312 482.56484375 1.78484375 483.621875 1.203125 484.7109375 C-15.37567733 514.44381303 -42.30441724 537.53965764 -74.859375 547.68359375 C-110.41030719 557.76246628 -147.17584586 552.53532327 -179.7109375 535.6953125 C-207.29985842 520.06021189 -229.46478753 495.68755161 -238.4609375 464.9453125 C-243.60630295 445.95220264 -242.23103528 425.36109331 -237.0859375 406.5078125 C-236.89290039 405.78287598 -236.69986328 405.05793945 -236.50097656 404.31103516 C-232.01001844 388.01011079 -223.98350162 372.95805623 -216.25 358.00390625 C-206.46024987 339.00652751 -198.23905376 319.23745375 -192.54199219 298.609375 C-190.23768615 290.69471955 -186.07493062 284.11032017 -179.0859375 279.5078125 C-173.86139326 276.89554038 -169.72018372 275.95526246 -163.8984375 276.0078125 C-163.1559375 276.01353271 -162.4134375 276.01925293 -161.6484375 276.02514648 C-149.65388204 276.40968696 -140.57674646 282.21369472 -132.15234375 290.3828125 C-123.21607874 299.91482851 -119.44064312 311.25371212 -119.796875 324.19140625 C-121.46710437 343.3539027 -131.59285618 360.36639738 -139.92578125 377.3359375 C-147.02382635 391.80200844 -154.05856319 406.15827605 -159.0859375 421.5078125 C-159.35116211 422.3107373 -159.61638672 423.11366211 -159.88964844 423.94091797 C-164.51406492 438.35397134 -167.53097443 453.80498459 -160.5703125 467.9609375 C-154.32634776 478.67426647 -146.39563475 486.08632839 -134.359375 489.59375 C-116.39331397 493.88018509 -95.75176433 488.84152311 -80.0703125 479.76171875 C-56.12915149 464.50690206 -40.55337142 439.69403563 -34.0234375 412.28515625 C-33.27709876 408.7005774 -32.63829038 405.12682858 -32.0859375 401.5078125 C-31.89064453 400.37279297 -31.89064453 400.37279297 -31.69140625 399.21484375 C-27.78553006 372.29033719 -35.46748675 346.3454556 -51.27734375 324.4765625 C-53.47241587 321.743521 -55.74574643 319.11743346 -58.0859375 316.5078125 C-58.961383 315.50038696 -59.8363671 314.49256032 -60.7109375 313.484375 C-66.64235342 306.74065454 -72.99822017 301.04763754 -80.0859375 295.5078125 C-81.75429219 294.11399719 -83.42091623 292.71810814 -85.0859375 291.3203125 C-95.46698965 282.82537426 -106.45041407 275.06235314 -117.3984375 267.3203125 C-124.48893655 262.29257865 -131.33319613 256.97936328 -138.0859375 251.5078125 C-138.64168457 251.05792969 -139.19743164 250.60804688 -139.77001953 250.14453125 C-162.14151622 231.91639071 -179.2291416 210.90087812 -189.0859375 183.5078125 C-189.46621094 182.46238281 -189.84648437 181.41695312 -190.23828125 180.33984375 C-202.73740006 143.12548624 -195.97502761 103.05148106 -179.0859375 68.5078125 C-178.76367188 67.84410645 -178.44140625 67.18040039 -178.109375 66.49658203 C-161.44293763 32.6132406 -131.41920128 1.90122911 -95.66015625 -11.28515625 C-94.48066406 -11.68347656 -93.30117187 -12.08179688 -92.0859375 -12.4921875 C-90.36310547 -13.07419922 -90.36310547 -13.07419922 -88.60546875 -13.66796875 C-58.45965665 -23.03531149 -25.12530013 -20.29106517 0 0 Z " fill="#FFFFFF" transform="translate(251.0859375,179.4921875)"/>
<path d="M0 0 C8.72728306 5.21169907 12.60615045 10.98667957 15.3125 20.75 C15.83593241 24.1722111 15.88236171 27.48012136 15.8125 30.9375 C15.80404053 31.92290771 15.79558105 32.90831543 15.78686523 33.92358398 C15.49968491 46.9693585 13.96445793 59.95651808 12.55253601 72.91876221 C6.8575899 125.31759638 15.66714257 169.95192238 29.60668945 220.27978516 C30.07118834 221.95733959 30.53562549 223.63491113 31 225.3125 C31.22908051 226.13997742 31.45816101 226.96745483 31.69418335 227.82000732 C65.14194875 348.82661604 65.14194875 348.82661604 38.29101562 397.04199219 C36.1563128 400.76813514 33.89233115 404.31739133 31.3125 407.75 C30.8896875 408.33652344 30.466875 408.92304688 30.03125 409.52734375 C23.03522087 418.49609039 12.89531958 424.88931474 2.3125 428.75 C1.48363281 429.06839844 0.65476562 429.38679688 -0.19921875 429.71484375 C-18.9409813 435.65201524 -39.62199905 431.69605159 -57.64453125 425.3515625 C-64.08079263 423.45637272 -70.5217255 422.92402002 -76.6875 425.75 C-78.87823217 430.00687535 -79.75996181 434.79281108 -80.859375 439.42578125 C-81.28088717 441.15959346 -81.702775 442.89331437 -82.125 444.62695312 C-82.77837021 447.32623741 -83.42883376 450.02611178 -84.07226562 452.7277832 C-89.70933131 476.32972345 -97.02764966 500.84274272 -117.6875 515.75 C-129.52818558 522.73656566 -140.79363128 526.32005776 -154.625 526.125 C-155.68332031 526.11339844 -156.74164063 526.10179687 -157.83203125 526.08984375 C-180.35066477 525.61723045 -198.80676528 514.24926396 -214.39282227 498.46264648 C-244.27662969 467.00367543 -251.70914677 421.07600809 -250.81933594 379.43066406 C-249.49682981 342.50825216 -240.4108714 306.33189727 -232.03613281 270.53027344 C-222.92289443 233.02619747 -222.92289443 233.02619747 -218.6875 194.75 C-218.64625 193.64140625 -218.605 192.5328125 -218.5625 191.390625 C-218.10005271 164.45307031 -221.35661049 138.84744838 -229.2253418 113.14306641 C-233.8684582 97.93682783 -236.89641545 82.14793054 -229.46875 67.31640625 C-226.03424955 61.50637632 -221.97621744 58.19986557 -215.6875 55.75 C-204.58802137 53.02350366 -193.70539236 54.88830262 -183.734375 60.375 C-168.53760568 70.56277831 -161.77409091 86.5217754 -158.2109375 103.85546875 C-158.03820312 104.81066406 -157.86546875 105.76585937 -157.6875 106.75 C-157.55601562 107.46800781 -157.42453125 108.18601562 -157.2890625 108.92578125 C-154.91618082 125.43975509 -157.50129061 141.99849863 -160.03515625 158.30859375 C-160.21125994 159.46914213 -160.38736362 160.62969051 -160.56880379 161.82540703 C-164.60109024 188.3963097 -169.46693505 214.80792261 -174.44702148 241.21466064 C-176.47671324 251.98565811 -178.48859533 262.76000303 -180.49609375 273.53515625 C-180.82236315 275.28553633 -180.82236315 275.28553633 -181.15522385 277.07127762 C-184.48052162 294.93987834 -187.66420212 312.82990476 -190.72265625 330.74609375 C-190.91160398 331.84541796 -191.10055172 332.94474216 -191.29522514 334.07737923 C-196.94204666 367.01006569 -202.25649551 400.91914875 -183.69140625 430.9921875 C-177.88254889 438.98644344 -170.238523 444.97927087 -160.6875 447.75 C-153.41049237 448.84989859 -148.70090492 447.88421588 -142.6875 443.75 C-141.6975 443.42 -140.7075 443.09 -139.6875 442.75 C-138.61900302 440.91603175 -138.61900302 440.91603175 -137.6875 438.75 C-136.75089907 437.33273877 -135.81331008 435.91613025 -134.875 434.5 C-130.779328 427.65723093 -128.60839822 420.42484562 -126.6875 412.75 C-126.52088867 412.10111816 -126.35427734 411.45223633 -126.18261719 410.78369141 C-114.44988454 362.23738459 -127.76735271 302.85831999 -136.32516479 254.75860596 C-142.93299572 217.46347922 -144.8723958 175.44775802 -123.75 142.125 C-118.39135164 134.60228211 -111.90304514 128.02030194 -102.6875 125.75 C-91.43376531 124.55042608 -82.7317814 126.09377214 -73.4375 132.5 C-66.44344698 138.15176002 -62.16808666 144.81452965 -60.6875 153.75 C-60.35837248 159.9066207 -61.24154892 165.17164639 -62.75 171.125 C-62.97115479 172.02927734 -63.19230957 172.93355469 -63.42016602 173.86523438 C-64.92752726 179.95045017 -66.56886013 185.99466038 -68.23901367 192.03686523 C-72.4062249 207.14975225 -75.79646391 222.34255883 -78.6875 237.75 C-78.95868652 239.16224854 -78.95868652 239.16224854 -79.23535156 240.60302734 C-85.7243165 275.31189444 -83.05719008 315.77500577 -62.64453125 345.75 C-55.44273263 355.11094521 -45.74922777 363.64511025 -33.6875 365.75 C-24.87524422 366.41315094 -17.65109972 365.57022711 -9.9375 361.1875 C1.24828118 349.06957038 0.58926223 331.41060821 0.0625 316.0625 C0.03949829 315.38292236 0.01649658 314.70334473 -0.00720215 314.00317383 C-1.46415317 272.82805226 -13.76579489 234.42560187 -26.52416992 195.59716797 C-30.72752621 182.7918259 -34.72517712 169.94914179 -38.53125 157.01953125 C-40.06961076 151.79384028 -41.65997146 146.58705593 -43.28125 141.38671875 C-51.45700307 115.09596646 -58.13727477 89.27108355 -58.0625 61.5625 C-58.06195618 60.79886139 -58.06141235 60.03522278 -58.06085205 59.2484436 C-58.02115093 47.08703653 -57.37582832 35.43111951 -53.6875 23.75 C-53.37401611 22.75685791 -53.37401611 22.75685791 -53.05419922 21.74365234 C-49.53007963 11.19769147 -43.71329886 2.35090196 -34 -3.375 C-22.83972772 -8.26955176 -10.40477298 -5.30748521 0 0 Z " fill="#FFFFFF" transform="translate(525.6875,51.25)"/>
<path d="M0 0 C6.73289193 7.66192663 11.14824761 16.77547126 15.45803833 25.94622803 C16.35793342 27.85976591 17.26733812 29.76852385 18.17944336 31.67626953 C19.40225013 34.23390602 20.62305858 36.79247317 21.84179688 39.35205078 C38.22804259 73.68400156 58.12858331 105.91567487 79.06193542 137.61985779 C119.59854485 199.04701779 154.11722389 264.72001038 156.51953125 339.8671875 C156.56078125 341.02347656 156.60203125 342.17976563 156.64453125 343.37109375 C157.43287298 387.46895918 147.0742607 443.97246738 116.51953125 477.8671875 C115.65714844 478.83398438 115.65714844 478.83398438 114.77734375 479.8203125 C105.93072165 489.19691657 94.89075435 494.87986341 81.83203125 495.3046875 C71.6726212 494.84758777 63.15308132 491.21215928 55.765625 484.203125 C48.74323818 476.49433946 46.07905605 468.27006056 46.2578125 457.9296875 C47.64938224 441.64624452 58.07098014 426.51286997 66.62524414 413.05615234 C83.33263134 386.72523227 101.58772625 355.90478112 94.91088867 323.51147461 C92.31502915 312.0871574 87.94953251 302.43953569 78.14453125 295.4921875 C65.96600471 288.01523498 52.72540617 287.69222067 39.1171875 290.8359375 C27.92595919 294.04384659 19.00805376 299.75051694 12.73828125 309.69140625 C6.15154259 322.04154125 5.07037211 333.84269817 5.23828125 347.55615234 C5.2693067 350.09878522 5.27925989 352.64079038 5.28515625 355.18359375 C5.32134606 362.74395723 5.49584867 370.261754 6.01953125 377.8046875 C6.61905743 386.50980763 6.74078632 395.1957676 6.75976562 403.91992188 C6.76947111 406.60057635 6.80063475 409.28046121 6.83203125 411.9609375 C6.93649077 428.80262657 4.77193699 444.99336817 0.26953125 461.2421875 C-0.0342041 462.34433594 -0.33793945 463.44648438 -0.65087891 464.58203125 C-5.38066823 481.11068132 -12.56831017 494.48822787 -27.796875 503.46484375 C-38.62230509 509.12180067 -50.71953185 510.35063215 -62.48046875 506.8671875 C-71.86718013 503.20609479 -78.57522496 498.26787073 -83.4375 489.40625 C-91.63872289 469.44072611 -84.41265535 447.75337605 -77.46728516 428.60205078 C-72.55005963 414.9744505 -68.15412085 401.29394762 -64.60546875 387.2421875 C-64.31929687 386.11748047 -64.033125 384.99277344 -63.73828125 383.83398438 C-60.10673835 369.00227431 -59.07082752 354.69198982 -59.10546875 339.4921875 C-59.10678299 338.07989365 -59.10678299 338.07989365 -59.10812378 336.6390686 C-59.23293409 295.71640324 -69.6206058 257.71761307 -80.25878906 218.49232483 C-92.03719487 175.05207598 -92.03719487 175.05207598 -95.48046875 153.8671875 C-95.65618408 152.84842529 -95.65618408 152.84842529 -95.83544922 151.80908203 C-103.68575354 104.76557933 -96.86878285 49.66231971 -69.59375 9.8203125 C-61.21129008 -1.89343925 -51.4279235 -9.29711643 -37.2421875 -12.6640625 C-22.73210096 -14.99840915 -10.63463689 -9.31210112 0 0 Z M-35.48046875 68.8671875 C-43.3248602 80.81509272 -45.03810852 94.50794592 -44.91796875 108.5546875 C-44.91112061 109.82562256 -44.90427246 111.09655762 -44.8972168 112.40600586 C-44.61608893 134.5077218 -42.15536466 157.17611285 -36.14697266 178.46777344 C-35.44648502 180.98952891 -34.81067632 183.52252258 -34.1796875 186.0625 C-29.77898662 203.22902715 -23.04255078 220.21939656 -11.48046875 233.8671875 C-10.76117187 234.74632812 -10.041875 235.62546875 -9.30078125 236.53125 C0.76031226 248.33301713 13.9924197 255.34369403 29.51953125 256.8671875 C41.12539171 257.74847363 52.28268909 256.79238427 61.58203125 249.1796875 C67.53791518 243.33308584 70.16999482 236.20143922 70.83203125 227.9921875 C70.60237319 215.19397035 64.43439227 203.85088448 58.51953125 192.8671875 C58.1131543 192.10132324 57.70677734 191.33545898 57.28808594 190.54638672 C51.30868964 179.29441641 44.86530671 168.39622119 38.09375 157.60546875 C35.51114018 153.48271068 32.97914445 149.33183534 30.4765625 145.16015625 C23.11445498 132.89873536 15.59846183 120.82793081 7.56616211 108.98779297 C1.41921659 99.86533854 -4.27238976 90.49015428 -9.8984375 81.04101562 C-10.90583984 79.35588867 -10.90583984 79.35588867 -11.93359375 77.63671875 C-12.52301758 76.64260986 -13.11244141 75.64850098 -13.71972656 74.62426758 C-17.51116253 68.47482153 -17.51116253 68.47482153 -23.48046875 64.8671875 C-28.47265966 64.21603216 -32.0522312 65.16433661 -35.48046875 68.8671875 Z " fill="#FFFFFF" transform="translate(665.48046875,20.1328125)"/>
<path d="M0 0 C18.79622676 15.33657971 21.25445495 42.15908551 25.05859375 64.4921875 C37.00302468 134.3966134 60.20532781 200.69201589 84.79492188 267.02246094 C111.23118407 338.34137386 123.34767397 416.64954074 90.74609375 488.4921875 C86.18926464 497.97039204 80.47685321 506.31362514 72.74609375 513.4921875 C72.15828125 514.09675781 71.57046875 514.70132813 70.96484375 515.32421875 C60.91977968 525.12565253 47.89143343 530.26191189 33.91015625 530.55078125 C26.30478848 530.22057621 19.32580703 528.09413502 13.859375 522.59375 C7.88947767 515.04826233 6.94823884 507.92067196 7.74609375 498.4921875 C9.86521307 488.27359868 13.43920955 478.83927029 17.49609375 469.2421875 C23.26543473 455.26804349 27.95311451 441.14019919 31.74609375 426.4921875 C31.98328125 425.58291504 32.22046875 424.67364258 32.46484375 423.73681641 C37.68517618 403.05357966 38.65306479 381.60144868 27.82421875 362.60546875 C18.81558897 349.1094576 5.31613019 341.70754337 -10.25390625 338.2421875 C-23.17979745 336.1993024 -37.21939402 335.60961218 -48.515625 342.96484375 C-57.83423207 350.25092654 -60.81744214 361.15667402 -62.25390625 372.4921875 C-62.21223964 382.56208796 -60.58495116 392.27974009 -58.56640625 402.1171875 C-58.3004293 403.44906743 -58.03522746 404.78110236 -57.77075195 406.11328125 C-56.94698839 410.24273246 -56.10352798 414.36798708 -55.25390625 418.4921875 C-55.11303589 419.17599487 -54.97216553 419.85980225 -54.82702637 420.56433105 C-53.61821436 426.42466 -52.40766143 432.28460594 -51.17114258 438.13916016 C-47.94001075 453.50928401 -45.101982 468.52590364 -54.12890625 482.3671875 C-60.10592363 488.34420488 -66.0923562 490.78260579 -74.44140625 490.9296875 C-85.34403485 490.88599755 -92.11594703 486.35749734 -99.8671875 479.0078125 C-121.25064947 456.4694336 -125.3421421 421.72976902 -125.45703125 391.93359375 C-125.46273132 390.75039047 -125.4684314 389.56718719 -125.4743042 388.34812927 C-125.48370514 385.84789915 -125.49026853 383.34765691 -125.49414062 380.84741211 C-125.50372791 377.12394838 -125.53474989 373.40106622 -125.56640625 369.67773438 C-125.85166053 304.51777668 -106.11301184 240.72059682 -86.85025024 179.0619812 C-71.49661599 129.88071728 -57.18375531 80.22073667 -47.97680664 29.47729492 C-43.39879544 4.7506647 -43.39879544 4.7506647 -33.25390625 -2.5078125 C-23.09559808 -8.62038755 -9.47350521 -6.33756155 0 0 Z M-23.25390625 120.4921875 C-24.58762097 123.12477016 -25.59815319 125.85110816 -26.609375 128.62109375 C-26.90869431 129.4168129 -27.20801361 130.21253204 -27.5164032 131.03236389 C-28.44349674 133.51388169 -29.35191263 136.00144599 -30.25390625 138.4921875 C-30.52640198 139.2419989 -30.79889771 139.9918103 -31.07965088 140.76434326 C-32.96088074 145.96835123 -34.7779908 151.19312674 -36.56640625 156.4296875 C-36.97969681 157.6386821 -36.97969681 157.6386821 -37.40133667 158.87210083 C-58.65636886 216.30215173 -58.65636886 216.30215173 -51.00390625 274.8671875 C-43.65733477 288.15354017 -33.76805875 296.17967574 -19.25390625 300.4921875 C-18.62484375 300.68425781 -17.99578125 300.87632812 -17.34765625 301.07421875 C-8.37906483 302.86459054 0.79481643 302.10079904 8.74609375 297.4921875 C16.57455325 291.88159172 21.38017422 283.45506497 23.30859375 274.078125 C26.34856085 249.16125179 19.9083242 224.98821778 13.67382812 201.05664062 C12.15163872 195.20822871 10.66164414 189.35189447 9.18359375 183.4921875 C8.89323242 182.34621094 8.60287109 181.20023437 8.30371094 180.01953125 C6.20750859 171.63472187 4.41609239 163.20851662 2.68359375 154.7421875 C-1.22789136 134.54433916 -1.22789136 134.54433916 -12.19140625 117.6171875 C-17.16733073 114.90304687 -19.8566666 116.38811521 -23.25390625 120.4921875 Z " fill="#FFFFFF" transform="translate(1443.25390625,134.5078125)"/>
</svg>
